<svg id="visual" viewBox="0 0 960 540" width="960" height="540"
    xmlns="http://www.w3.org/2000/svg"
    xmlns:xlink="http://www.w3.org/1999/xlink" version="1.1">
    <rect x="0" y="0" width="960" height="540"></rect>
    <path d="M0 19L7 39.2C14 59.3 28 99.7 41.8 102C55.7 104.3 69.3 68.7 83.2 62.8C97 57 111 81 125 81.3C139 81.7 153 58.3 167 64.7C181 71 195 107 208.8 121.8C222.7 136.7 236.3 130.3 250.2 107.7C264 85 278 46 292 34.5C306 23 320 39 334 54.5C348 70 362 85 375.8 86.8C389.7 88.7 403.3 77.3 417.2 74.3C431 71.3 445 76.7 459 79.7C473 82.7 487 83.3 501 85C515 86.7 529 89.3 542.8 86C556.7 82.7 570.3 73.3 584.2 59.3C598 45.3 612 26.7 626 23.7C640 20.7 654 33.3 668 39.7C682 46 696 46 709.8 42.5C723.7 39 737.3 32 751.2 34.3C765 36.7 779 48.3 793 50.3C807 52.3 821 44.7 835 55C849 65.3 863 93.7 876.8 112.3C890.7 131 904.3 140 918.2 133.8C932 127.7 946 106.3 953 95.7L960 85L960 0L953 0C946 0 932 0 918.2 0C904.3 0 890.7 0 876.8 0C863 0 849 0 835 0C821 0 807 0 793 0C779 0 765 0 751.2 0C737.3 0 723.7 0 709.8 0C696 0 682 0 668 0C654 0 640 0 626 0C612 0 598 0 584.2 0C570.3 0 556.7 0 542.8 0C529 0 515 0 501 0C487 0 473 0 459 0C445 0 431 0 417.2 0C403.3 0 389.7 0 375.8 0C362 0 348 0 334 0C320 0 306 0 292 0C278 0 264 0 250.2 0C236.3 0 222.7 0 208.8 0C195 0 181 0 167 0C153 0 139 0 125 0C111 0 97 0 83.2 0C69.3 0 55.7 0 41.8 0C28 0 14 0 7 0L0 0Z" fill="#0066FF" stroke-linecap="round" stroke-linejoin="miter"></path>
</svg>