<svg id="visual" viewBox="0 0 960 540" width="960" height="540"
    xmlns="http://www.w3.org/2000/svg"
    xmlns:xlink="http://www.w3.org/1999/xlink" version="1.1">
    <rect x="0" y="0" width="960" height="540"></rect>
    <path d="M0 66L7 133.2C14 200.3 28 334.7 41.8 342.5C55.7 350.3 69.3 231.7 83.2 212.5C97 193.3 111 273.7 125 274.5C139 275.3 153 196.7 167 217.3C181 238 195 358 208.8 407.8C222.7 457.7 236.3 437.3 250.2 362.2C264 287 278 157 292 118.3C306 79.7 320 132.3 334 183.8C348 235.3 362 285.7 375.8 292C389.7 298.3 403.3 260.7 417.2 250.8C431 241 445 259 459 269C473 279 487 281 501 286.3C515 291.7 529 300.3 542.8 288.8C556.7 277.3 570.3 245.7 584.2 198.8C598 152 612 90 626 80.3C640 70.7 654 113.3 668 134.7C682 156 696 156 709.8 144.3C723.7 132.7 737.3 109.3 751.2 117C765 124.7 779 163.3 793 170C807 176.7 821 151.3 835 186C849 220.7 863 315.3 876.8 377.5C890.7 439.7 904.3 469.3 918.2 448.5C932 427.7 946 356.3 953 320.7L960 285L960 0L953 0C946 0 932 0 918.2 0C904.3 0 890.7 0 876.8 0C863 0 849 0 835 0C821 0 807 0 793 0C779 0 765 0 751.2 0C737.3 0 723.7 0 709.8 0C696 0 682 0 668 0C654 0 640 0 626 0C612 0 598 0 584.2 0C570.3 0 556.7 0 542.8 0C529 0 515 0 501 0C487 0 473 0 459 0C445 0 431 0 417.2 0C403.3 0 389.7 0 375.8 0C362 0 348 0 334 0C320 0 306 0 292 0C278 0 264 0 250.2 0C236.3 0 222.7 0 208.8 0C195 0 181 0 167 0C153 0 139 0 125 0C111 0 97 0 83.2 0C69.3 0 55.7 0 41.8 0C28 0 14 0 7 0L0 0Z" fill="#0066FF" stroke-linecap="round" stroke-linejoin="miter"></path>
</svg>