<svg id="visual" viewBox="0 0 960 540" width="960" height="540"
    xmlns="http://www.w3.org/2000/svg"
    xmlns:xlink="http://www.w3.org/1999/xlink" version="1.1">
    <rect x="0" y="0" width="960" height="540"></rect>
    <path d="M0 39L7 79.3C14 119.7 28 200.3 41.8 205C55.7 209.7 69.3 138.3 83.2 126.8C97 115.3 111 163.7 125 164.3C139 165 153 118 167 130.3C181 142.7 195 214.3 208.8 244.2C222.7 274 236.3 262 250.2 217C264 172 278 94 292 70.7C306 47.3 320 78.7 334 109.5C348 140.3 362 170.7 375.8 174.7C389.7 178.7 403.3 156.3 417.2 150.5C431 144.7 445 155.3 459 161.2C473 167 487 168 501 171.2C515 174.3 529 179.7 542.8 172.8C556.7 166 570.3 147 584.2 118.8C598 90.7 612 53.3 626 47.5C640 41.7 654 67.3 668 80.2C682 93 696 93 709.8 86C723.7 79 737.3 65 751.2 69.7C765 74.3 779 97.7 793 101.7C807 105.7 821 90.3 835 111C849 131.7 863 188.3 876.8 225.7C890.7 263 904.3 281 918.2 268.5C932 256 946 213 953 191.5L960 170L960 0L953 0C946 0 932 0 918.2 0C904.3 0 890.7 0 876.8 0C863 0 849 0 835 0C821 0 807 0 793 0C779 0 765 0 751.2 0C737.3 0 723.7 0 709.8 0C696 0 682 0 668 0C654 0 640 0 626 0C612 0 598 0 584.2 0C570.3 0 556.7 0 542.8 0C529 0 515 0 501 0C487 0 473 0 459 0C445 0 431 0 417.2 0C403.3 0 389.7 0 375.8 0C362 0 348 0 334 0C320 0 306 0 292 0C278 0 264 0 250.2 0C236.3 0 222.7 0 208.8 0C195 0 181 0 167 0C153 0 139 0 125 0C111 0 97 0 83.2 0C69.3 0 55.7 0 41.8 0C28 0 14 0 7 0L0 0Z" fill="#0066FF" stroke-linecap="round" stroke-linejoin="miter"></path>
</svg>